<?xml version="1.0" encoding="utf-8"?>
<!-- Generator: Adobe Illustrator 16.0.0, SVG Export Plug-In . SVG Version: 6.00 Build 0)  -->
<!DOCTYPE svg PUBLIC "-//W3C//DTD SVG 1.1//EN" "http://www.w3.org/Graphics/SVG/1.1/DTD/svg11.dtd">
<svg version="1.1" id="Layer_1" xmlns="http://www.w3.org/2000/svg" xmlns:xlink="http://www.w3.org/1999/xlink" x="0px" y="0px"
	 width="16.325px" height="14.637px" viewBox="0.681 0.681 16.325 14.637" enable-background="new 0.681 0.681 16.325 14.637"
	 xml:space="preserve">
<path fill="none" stroke="#5ECCF3" stroke-width="0.7" stroke-miterlimit="10" d="M7.379,14.424L7.373,14.43l-0.156,0.104
	l-0.522,0.349c-0.147,0.098-0.345,0.114-0.513,0.041c-0.167-0.074-0.268-0.224-0.268-0.39v-0.58v-0.174v-0.009v-0.108v-1.307H4.449
	H2.984c-1.077,0-1.953-0.781-1.953-1.742v-7.84c0-0.961,0.876-1.742,1.953-1.742h11.719c1.077,0,1.953,0.781,1.953,1.742v7.84
	c0,0.961-0.876,1.742-1.953,1.742h-4.232L7.379,14.424z"/>
<path fill="#5ECCF3" d="M8.849,3.149c-1.219,0-2.207,1.204-2.207,2.69v0.518c0,0.172-0.113,0.31-0.255,0.31
	c-0.141,0-0.254-0.138-0.254-0.31V5.839c0-1.828,1.215-3.311,2.715-3.311c1.501,0,2.717,1.482,2.717,3.311v1.864
	c0,0.627-1.497,2.034-2.016,2.034l0.125-0.023c-0.088,0.183-0.252,0.31-0.44,0.31H8.894c-0.28,0-0.508-0.279-0.508-0.621
	c0-0.345,0.228-0.621,0.508-0.621h0.341c0.188,0,0.353,0.125,0.44,0.311L9.552,9.117c0.234,0,1.505-1.128,1.505-1.414V5.839
	C11.057,4.353,10.068,3.149,8.849,3.149z"/>
<path fill="#5ECCF3" d="M5.991,5.219h0.216c0.24,0,0.433,0.185,0.433,0.414v1.449c0,0.228-0.193,0.412-0.433,0.412H5.991
	c-0.479,0-0.868-0.37-0.868-0.827V6.047C5.123,5.59,5.512,5.219,5.991,5.219z"/>
<path fill="#5ECCF3" d="M11.7,5.219c0.479,0,0.864,0.371,0.864,0.828v0.621c0,0.457-0.386,0.827-0.864,0.827h-0.216
	c-0.238,0-0.433-0.185-0.433-0.412V5.633c0-0.229,0.194-0.414,0.433-0.414H11.7z"/>
</svg>
